<?xml version="1.0" encoding="utf-8"?>
<!-- Generator: Adobe Illustrator 19.0.1, SVG Export Plug-In . SVG Version: 6.00 Build 0)  -->
<svg version="1.1" id="Layer_1" xmlns="http://www.w3.org/2000/svg" xmlns:xlink="http://www.w3.org/1999/xlink" x="0px" y="0px"
	 viewBox="0 0 611.7 167.7" style="enable-background:new 0 0 611.7 167.7;" xml:space="preserve">
<style type="text/css">
	.st0{fill:#CC401F;}
	.st1{fill:#FF0000;stroke:#FFFFFF;stroke-miterlimit:10;}
	.st2{fill:#FF0000;}
	.st3{fill:#FFFFFF;}
	.st4{fill:#0000FF;}
	.st5{fill:#009C00;}
	.st6{fill:#007800;}
	.st7{fill:#987855;}
	.st8{fill:#3B2724;}
	.st9{fill:#F5DFC2;}
	.st10{fill:#D6B598;}
</style>
<g>
	<path class="st3" d="M16.9,56.5V37.7h18.8v18.8H16.9z M16.9,150.3v-18.8h18.8v-18.8h18.8v18.8h56.3v18.8H16.9z M35.7,37.7V19H92
		v18.8H35.7z M54.5,112.7V94h18.8v18.8H54.5z M73.2,94V75.2H92V94H73.2z M92,75.2V37.7h18.8v37.5H92z"/>
	<path class="st3" d="M129.5,150.3V19h75v18.8h-56.3v37.5h56.3V94h-56.3v37.5h56.3v18.8H129.5z M204.5,75.2V37.7h18.8v37.5H204.5z
		 M204.5,131.5V94h18.8v37.5H204.5z"/>
	<path class="st3" d="M242,56.5V37.7h18.8v18.8H242z M242,150.3v-75h18.8v75H242z"/>
	<path class="st3" d="M298.3,150.3v-75h-18.8V56.5h18.8V19H317v37.5h18.8v18.8H317v75H298.3z"/>
	<path class="st3" d="M354.5,150.3V56.5h18.8v18.8h56.3V56.5h18.8v93.8h-18.8V94h-56.3v56.3H354.5z M373.3,56.5V37.7h18.8v18.8
		H373.3z M392.1,37.7V19h18.8v18.8H392.1z M410.8,56.5V37.7h18.8v18.8H410.8z"/>
	<polyline class="st3" points="485.8,75.2 485.8,150.3 467.1,150.3 467.1,75.2 	"/>
	<rect x="485.8" y="56.5" class="st3" width="18.8" height="18.8"/>
	<rect x="504.6" y="56.5" class="st3" width="18.8" height="18.8"/>
	<path class="st3" d="M559.8,150.3v-75H541V56.5h18.8V19h18.8v37.5h18.8v18.8h-18.8v75H559.8z"/>
</g>
</svg>
