<?xml version="1.0" encoding="utf-8"?>
<!-- Generator: Adobe Illustrator 19.0.1, SVG Export Plug-In . SVG Version: 6.00 Build 0)  -->
<svg version="1.1" id="Layer_1" xmlns="http://www.w3.org/2000/svg" xmlns:xlink="http://www.w3.org/1999/xlink" x="0px" y="0px"
	 viewBox="0 0 260 190.7" style="enable-background:new 0 0 260 190.7;" xml:space="preserve">
<style type="text/css">
	.st0{fill:#CC401F;}
	.st1{fill:#FFFFFF;}
	.st2{fill:#0000FF;}
	.st3{fill:#009C00;}
	.st4{fill:#FF0000;}
	.st5{fill:#987855;}
	.st6{fill:#3B2724;}
	.st7{fill:#F5DFC2;}
	.st8{fill:#D6B598;}
	.st9{fill:#22B04C;}
	.st10{fill:#CCCCCC;}
	.st11{fill:#B3B3B3;}
</style>
<g>
	<rect x="96.6" y="79.8" width="4.8" height="4.8"/>
	<rect x="96.6" y="70.2" width="4.8" height="4.8"/>
	<rect x="96.6" y="65.5" width="4.8" height="4.8"/>
	<rect x="101.4" y="79.8" class="st9" width="4.8" height="4.8"/>
	<rect x="101.4" y="75" width="4.8" height="4.8"/>
	<rect x="106.2" y="79.8" width="4.8" height="4.8"/>
	<rect x="106.2" y="75" class="st9" width="4.8" height="4.8"/>
	<rect x="110.9" y="79.8" class="st9" width="4.8" height="4.8"/>
	<rect x="110.9" y="75" class="st11" width="4.8" height="4.8"/>
	<rect x="115.7" y="79.8" class="st9" width="4.8" height="4.8"/>
	<rect x="115.7" y="75" width="4.8" height="4.8"/>
	<rect x="101.4" y="70.2" class="st9" width="4.8" height="4.8"/>
	<rect x="101.4" y="65.5" class="st9" width="4.8" height="4.8"/>
	<rect x="106.2" y="70.2" class="st11" width="4.8" height="4.8"/>
	<rect x="106.2" y="65.5" width="4.8" height="4.8"/>
	<rect x="110.9" y="70.2" class="st1" width="4.8" height="4.8"/>
	<rect x="110.9" y="65.5" class="st11" width="4.8" height="4.8"/>
	<rect x="115.7" y="70.2" class="st11" width="4.8" height="4.8"/>
	<rect x="115.7" y="65.5" class="st1" width="4.8" height="4.8"/>
	<rect x="82.3" y="98.8" width="4.8" height="4.8"/>
	<rect x="82.3" y="94.1" width="4.8" height="4.8"/>
	<rect x="87.1" y="98.8" width="4.8" height="4.8"/>
	<rect x="87.1" y="94.1" class="st9" width="4.8" height="4.8"/>
	<rect x="91.9" y="98.8" width="4.8" height="4.8"/>
	<rect x="91.9" y="94.1" width="4.8" height="4.8"/>
	<rect x="82.3" y="89.3" width="4.8" height="4.8"/>
	<rect x="87.1" y="89.3" width="4.8" height="4.8"/>
	<rect x="91.9" y="89.3" class="st9" width="4.8" height="4.8"/>
	<rect x="91.9" y="84.5" width="4.8" height="4.8"/>
	<rect x="96.6" y="89.3" width="4.8" height="4.8"/>
	<rect x="96.6" y="84.5" class="st9" width="4.8" height="4.8"/>
	<rect x="101.4" y="84.5" width="4.8" height="4.8"/>
	<rect x="110.9" y="84.5" width="4.8" height="4.8"/>
	<rect x="115.7" y="84.5" width="4.8" height="4.8"/>
	<rect x="120.5" y="79.8" width="4.8" height="4.8"/>
	<rect x="120.5" y="70.2" width="4.8" height="4.8"/>
	<rect x="120.5" y="65.5" class="st11" width="4.8" height="4.8"/>
	<rect x="125.2" y="65.5" width="4.8" height="4.8"/>
	<rect x="120.5" y="89.3" width="4.8" height="4.8"/>
	<rect x="120.5" y="84.5" class="st9" width="4.8" height="4.8"/>
	<rect x="125.2" y="89.3" width="4.8" height="4.8"/>
	<rect x="125.2" y="84.5" width="4.8" height="4.8"/>
	<rect x="91.9" y="60.7" width="4.8" height="4.8"/>
	<rect x="91.9" y="55.9" width="4.8" height="4.8"/>
	<rect x="96.6" y="60.7" class="st9" width="4.8" height="4.8"/>
	<rect x="96.6" y="55.9" width="4.8" height="4.8"/>
	<rect x="101.4" y="60.7" width="4.8" height="4.8"/>
	<rect x="110.9" y="60.7" width="4.8" height="4.8"/>
	<rect x="115.7" y="60.7" class="st11" width="4.8" height="4.8"/>
	<rect x="115.7" y="55.9" width="4.8" height="4.8"/>
	<rect x="130" y="41.6" width="4.8" height="4.8"/>
	<rect x="134.8" y="41.6" class="st11" width="4.8" height="4.8"/>
	<rect x="134.8" y="36.9" width="4.8" height="4.8"/>
	<rect x="139.5" y="41.6" class="st1" width="4.8" height="4.8"/>
	<rect x="139.5" y="36.9" class="st11" width="4.8" height="4.8"/>
	<rect x="144.3" y="41.6" class="st11" width="4.8" height="4.8"/>
	<rect x="144.3" y="36.9" class="st1" width="4.8" height="4.8"/>
	<rect x="149.1" y="41.6" width="4.8" height="4.8"/>
	<rect x="149.1" y="36.9" class="st11" width="4.8" height="4.8"/>
	<rect x="153.8" y="36.9" width="4.8" height="4.8"/>
	<rect x="139.5" y="32.1" width="4.8" height="4.8"/>
	<rect x="144.3" y="32.1" class="st11" width="4.8" height="4.8"/>
	<rect x="144.3" y="27.3" width="4.8" height="4.8"/>
	<rect x="149.1" y="32.1" class="st1" width="4.8" height="4.8"/>
	<rect x="149.1" y="27.3" width="4.8" height="4.8"/>
	<rect x="153.8" y="32.1" width="4.8" height="4.8"/>
	<rect x="153.8" y="27.3" width="4.8" height="4.8"/>
	<rect x="120.5" y="60.7" class="st1" width="4.8" height="4.8"/>
	<rect x="120.5" y="55.9" class="st11" width="4.8" height="4.8"/>
	<rect x="125.2" y="60.7" class="st11" width="4.8" height="4.8"/>
	<rect x="125.2" y="55.9" class="st1" width="4.8" height="4.8"/>
	<rect x="130" y="60.7" width="4.8" height="4.8"/>
	<rect x="130" y="55.9" class="st11" width="4.8" height="4.8"/>
	<rect x="134.8" y="55.9" width="4.8" height="4.8"/>
	<rect x="120.5" y="51.2" width="4.8" height="4.8"/>
	<rect x="125.2" y="51.2" class="st11" width="4.8" height="4.8"/>
	<rect x="125.2" y="46.4" width="4.8" height="4.8"/>
	<rect x="130" y="51.2" class="st1" width="4.8" height="4.8"/>
	<rect x="130" y="46.4" class="st11" width="4.8" height="4.8"/>
	<rect x="134.8" y="51.2" class="st11" width="4.8" height="4.8"/>
	<rect x="134.8" y="46.4" class="st1" width="4.8" height="4.8"/>
	<rect x="139.5" y="51.2" width="4.8" height="4.8"/>
	<rect x="139.5" y="46.4" class="st11" width="4.8" height="4.8"/>
	<rect x="144.3" y="46.4" width="4.8" height="4.8"/>
</g>
<g>
	<path d="M58.6,162.6H25.1v-4.8h-4.8v-14.4h4.8v-4.8h4.8v-9.6h-9.6v-9.6h4.8v-4.8H49v4.8h4.8v4.8h4.8v9.6h-4.8v4.8H49v4.8h4.8v4.8
		h4.8V162.6z M44.2,124.3v-4.8H25.1v4.8H44.2z M49,153v-4.8H29.9v-4.8h-4.8v9.6H49z M39.4,143.4v-4.8h-9.6v4.8H39.4z M44.2,138.7
		v-4.8h-4.8v4.8H44.2z M49,133.9v-9.6h-4.8v9.6H49z"/>
	<path d="M96.7,157.8h-4.8v4.8H63.2v-4.8h-4.8v-38.3h4.8v-4.8h23.9v4.8h4.8v4.8h4.8V157.8z M82.3,153v-4.8H68v-9.6h14.4v-4.8H68
		v-9.6h14.4v-4.8H63.2V153H82.3z M87.1,133.9v-9.6h-4.8v9.6H87.1z M87.1,148.2v-9.6h-4.8v9.6H87.1z"/>
	<path d="M115.6,162.6h-14.4v-4.8h-4.8v-38.3h4.8v-4.8h9.6v4.8h4.8V162.6z M106,124.3v-4.8h-4.8v4.8H106z M106,153v-23.9h-4.8V153
		H106z"/>
	<path d="M144.1,162.6h-14.4v-4.8H125V153h-4.8v-14.4h-4.8v-9.6h4.8v-9.6h4.8v-4.8h9.6v4.8h4.8v9.6h4.8v9.6h-4.8v9.6h4.8V162.6z
		 M134.6,133.9v-4.8h-4.8v-9.6H125v9.6h-4.8v4.8h4.8v14.4h4.8v-14.4H134.6z M134.6,153v-4.8h-4.8v4.8H134.6z"/>
	<path d="M182.2,162.6h-14.4v-4.8h-4.8v4.8h-14.4v-4.8H144v-33.5h4.8v-4.8h4.8v-4.8h19.1v4.8h4.8v4.8h4.8V162.6z M172.7,153v-28.7
		h-4.8v9.6h-14.4v-9.6h-4.8V153h4.8v-14.4h14.4V153H172.7z M167.9,124.3v-4.8h-14.4v4.8H167.9z"/>
	<path d="M210.8,138.7h-9.6v23.9h-14.4v-4.8H182v-23.9h4.8v-4.8h4.8v-4.8H206v4.8h4.8V138.7z M191.6,153v-19.1h-4.8V153H191.6z
		 M201.2,133.9v-4.8h-9.6v4.8H201.2z"/>
	<path d="M239.3,162.6h-14.4v-4.8h-4.8V153h-4.8v-14.4h-4.8v-9.6h4.8v-9.6h4.8v-4.8h9.6v4.8h4.8v9.6h4.8v9.6h-4.8v9.6h4.8V162.6z
		 M229.7,133.9v-4.8h-4.8v-9.6h-4.8v9.6h-4.8v4.8h4.8v14.4h4.8v-14.4H229.7z M229.7,153v-4.8h-4.8v4.8H229.7z"/>
</g>
<g>
	<rect x="158.6" y="79.8" width="4.8" height="4.8"/>
	<rect x="158.6" y="70.2" width="4.8" height="4.8"/>
	<rect x="158.6" y="65.5" width="4.8" height="4.8"/>
	<rect x="153.8" y="79.8" class="st9" width="4.8" height="4.8"/>
	<rect x="153.8" y="75" width="4.8" height="4.8"/>
	<rect x="149.1" y="79.8" width="4.8" height="4.8"/>
	<rect x="149.1" y="75" class="st9" width="4.8" height="4.8"/>
	<rect x="144.3" y="79.8" class="st9" width="4.8" height="4.8"/>
	<rect x="144.3" y="75" class="st11" width="4.8" height="4.8"/>
	<rect x="139.5" y="79.8" class="st9" width="4.8" height="4.8"/>
	<rect x="139.5" y="75" width="4.8" height="4.8"/>
	<rect x="153.8" y="70.2" class="st9" width="4.8" height="4.8"/>
	<rect x="153.8" y="65.5" class="st9" width="4.8" height="4.8"/>
	<rect x="149.1" y="70.2" class="st11" width="4.8" height="4.8"/>
	<rect x="149.1" y="65.5" width="4.8" height="4.8"/>
	<rect x="144.3" y="70.2" class="st1" width="4.8" height="4.8"/>
	<rect x="144.3" y="65.5" class="st11" width="4.8" height="4.8"/>
	<rect x="139.5" y="70.2" class="st11" width="4.8" height="4.8"/>
	<rect x="139.5" y="65.5" class="st1" width="4.8" height="4.8"/>
	<rect x="172.9" y="98.8" width="4.8" height="4.8"/>
	<rect x="172.9" y="94.1" width="4.8" height="4.8"/>
	<rect x="168.1" y="98.8" width="4.8" height="4.8"/>
	<rect x="168.1" y="94.1" class="st9" width="4.8" height="4.8"/>
	<rect x="163.4" y="98.8" width="4.8" height="4.8"/>
	<rect x="163.4" y="94.1" width="4.8" height="4.8"/>
	<rect x="172.9" y="89.3" width="4.8" height="4.8"/>
	<rect x="168.1" y="89.3" width="4.8" height="4.8"/>
	<rect x="163.4" y="89.3" class="st9" width="4.8" height="4.8"/>
	<rect x="163.4" y="84.5" width="4.8" height="4.8"/>
	<rect x="158.6" y="89.3" width="4.8" height="4.8"/>
	<rect x="158.6" y="84.5" class="st9" width="4.8" height="4.8"/>
	<rect x="153.8" y="84.5" width="4.8" height="4.8"/>
	<rect x="144.3" y="84.5" width="4.8" height="4.8"/>
	<rect x="139.5" y="84.5" width="4.8" height="4.8"/>
	<rect x="134.8" y="79.8" width="4.8" height="4.8"/>
	<rect x="134.8" y="70.2" width="4.8" height="4.8"/>
	<rect x="134.8" y="65.5" class="st11" width="4.8" height="4.8"/>
	<rect x="130" y="65.5" width="4.8" height="4.8"/>
	<rect x="134.8" y="89.3" width="4.8" height="4.8"/>
	<rect x="134.8" y="84.5" class="st9" width="4.8" height="4.8"/>
	<rect x="130" y="89.3" width="4.8" height="4.8"/>
	<rect x="130" y="84.5" width="4.8" height="4.8"/>
	<rect x="163.4" y="60.7" width="4.8" height="4.8"/>
	<rect x="163.4" y="55.9" width="4.8" height="4.8"/>
	<rect x="158.6" y="60.7" class="st9" width="4.8" height="4.8"/>
	<rect x="158.6" y="55.9" width="4.8" height="4.8"/>
	<rect x="153.8" y="60.7" width="4.8" height="4.8"/>
	<rect x="144.3" y="60.7" width="4.8" height="4.8"/>
	<rect x="139.5" y="60.7" class="st11" width="4.8" height="4.8"/>
	<rect x="139.5" y="55.9" width="4.8" height="4.8"/>
	<rect x="125.2" y="41.6" width="4.8" height="4.8"/>
	<rect x="120.5" y="41.6" class="st11" width="4.8" height="4.8"/>
	<rect x="120.5" y="36.9" width="4.8" height="4.8"/>
	<rect x="115.7" y="41.6" class="st1" width="4.8" height="4.8"/>
	<rect x="115.7" y="36.9" class="st11" width="4.8" height="4.8"/>
	<rect x="110.9" y="41.6" class="st11" width="4.8" height="4.8"/>
	<rect x="110.9" y="36.9" class="st1" width="4.8" height="4.8"/>
	<rect x="106.2" y="41.6" width="4.8" height="4.8"/>
	<rect x="106.2" y="36.9" class="st11" width="4.8" height="4.8"/>
	<rect x="101.4" y="36.9" width="4.8" height="4.8"/>
	<rect x="115.7" y="32.1" width="4.8" height="4.8"/>
	<rect x="110.9" y="32.1" class="st11" width="4.8" height="4.8"/>
	<rect x="110.9" y="27.3" width="4.8" height="4.8"/>
	<rect x="106.2" y="32.1" class="st1" width="4.8" height="4.8"/>
	<rect x="106.2" y="27.3" width="4.8" height="4.8"/>
	<rect x="101.4" y="32.1" width="4.8" height="4.8"/>
	<rect x="101.4" y="27.3" width="4.8" height="4.8"/>
	<rect x="134.8" y="60.7" class="st1" width="4.8" height="4.8"/>
	<rect x="134.8" y="55.9" class="st11" width="4.8" height="4.8"/>
	<rect x="130" y="60.7" class="st11" width="4.8" height="4.8"/>
	<rect x="130" y="55.9" class="st1" width="4.8" height="4.8"/>
	<rect x="125.2" y="60.7" width="4.8" height="4.8"/>
	<rect x="125.2" y="55.9" class="st11" width="4.8" height="4.8"/>
	<rect x="120.5" y="55.9" width="4.8" height="4.8"/>
	<rect x="134.8" y="51.2" width="4.8" height="4.8"/>
	<rect x="130" y="51.2" class="st11" width="4.8" height="4.8"/>
	<rect x="130" y="46.4" width="4.8" height="4.8"/>
	<rect x="125.2" y="51.2" class="st1" width="4.8" height="4.8"/>
	<rect x="125.2" y="46.4" class="st11" width="4.8" height="4.8"/>
	<rect x="120.5" y="51.2" class="st11" width="4.8" height="4.8"/>
	<rect x="120.5" y="46.4" class="st1" width="4.8" height="4.8"/>
	<rect x="115.7" y="51.2" width="4.8" height="4.8"/>
	<rect x="115.7" y="46.4" class="st11" width="4.8" height="4.8"/>
	<rect x="110.9" y="46.4" width="4.8" height="4.8"/>
</g>
</svg>
