<?xml version="1.0" encoding="utf-8"?>
<!-- Generator: Adobe Illustrator 19.0.1, SVG Export Plug-In . SVG Version: 6.00 Build 0)  -->
<svg version="1.1" id="Layer_1" xmlns="http://www.w3.org/2000/svg" xmlns:xlink="http://www.w3.org/1999/xlink" x="0px" y="0px"
	 viewBox="0 0 2355.5 2155.3" style="enable-background:new 0 0 2355.5 2155.3;" xml:space="preserve">
<style type="text/css">
	.st0{fill:#CC401F;}
	.st1{fill:#FF0000;stroke:#FFFFFF;stroke-miterlimit:10;}
	.st2{fill:#FF0000;}
	.st3{fill:#FFFFFF;}
	.st4{fill:#0000FF;}
	.st5{fill:#009C00;}
	.st6{fill:#007800;}
	.st7{fill:#987855;}
	.st8{fill:#3B2724;}
	.st9{fill:#F5DFC2;}
	.st10{fill:#D6B598;}
</style>
<rect x="441.5" y="402.6" width="76.8" height="76.8"/>
<rect x="441.5" y="325.7" width="76.8" height="76.8"/>
<rect x="364.7" y="325.7" width="76.8" height="76.8"/>
<rect x="287.8" y="248.9" width="76.8" height="76.8"/>
<rect x="364.7" y="172" width="76.8" height="76.8"/>
<rect x="441.5" y="172" width="76.8" height="76.8"/>
<rect x="518.4" y="172" width="76.8" height="76.8"/>
<rect x="595.2" y="172" width="76.8" height="76.8"/>
<rect x="441.5" y="633.1" class="st7" width="76.8" height="76.8"/>
<rect x="518.4" y="633.1" class="st7" width="76.8" height="76.8"/>
<rect x="595.2" y="633.1" class="st7" width="76.8" height="76.8"/>
<rect x="672" y="633.1" class="st7" width="76.8" height="76.8"/>
<rect x="441.5" y="710" class="st7" width="76.8" height="76.8"/>
<rect x="364.7" y="710" class="st7" width="76.8" height="76.8"/>
<rect x="287.8" y="710" class="st7" width="76.8" height="76.8"/>
<rect x="287.8" y="786.8" class="st7" width="76.8" height="76.8"/>
<rect x="211" y="786.8" class="st7" width="76.8" height="76.8"/>
<rect x="518.4" y="710" class="st7" width="76.8" height="76.8"/>
<rect x="595.2" y="710" class="st7" width="76.8" height="76.8"/>
<rect x="672" y="710" class="st7" width="76.8" height="76.8"/>
<rect x="748.9" y="633.1" class="st7" width="76.8" height="76.8"/>
<rect x="825.7" y="633.1" class="st7" width="76.8" height="76.8"/>
<rect x="902.6" y="633.1" class="st7" width="76.8" height="76.8"/>
<rect x="979.4" y="633.1" class="st7" width="76.8" height="76.8"/>
<rect x="748.9" y="710" class="st7" width="76.8" height="76.8"/>
<rect x="825.7" y="710" class="st7" width="76.8" height="76.8"/>
<rect x="902.6" y="710" class="st7" width="76.8" height="76.8"/>
<rect x="979.4" y="710" class="st7" width="76.8" height="76.8"/>
<rect x="1056.3" y="633.1" class="st7" width="76.8" height="76.8"/>
<rect x="1133.1" y="633.1" class="st7" width="76.8" height="76.8"/>
<rect x="1210" y="633.1" class="st7" width="76.8" height="76.8"/>
<rect x="1286.8" y="633.1" class="st7" width="76.8" height="76.8"/>
<rect x="1056.3" y="710" class="st7" width="76.8" height="76.8"/>
<rect x="595.2" y="786.8" class="st7" width="76.8" height="76.8"/>
<rect x="672" y="786.8" class="st7" width="76.8" height="76.8"/>
<rect x="748.9" y="1555.3" class="st7" width="76.8" height="76.8"/>
<rect x="748.9" y="786.8" class="st7" width="76.8" height="76.8"/>
<rect x="825.7" y="786.8" class="st7" width="76.8" height="76.8"/>
<rect x="902.6" y="786.8" class="st7" width="76.8" height="76.8"/>
<rect x="979.4" y="786.8" class="st7" width="76.8" height="76.8"/>
<rect x="1056.3" y="786.8" class="st7" width="76.8" height="76.8"/>
<rect x="1133.1" y="710" class="st7" width="76.8" height="76.8"/>
<rect x="1210" y="710" class="st7" width="76.8" height="76.8"/>
<rect x="1286.8" y="710" class="st7" width="76.8" height="76.8"/>
<rect x="1363.7" y="633.1" class="st7" width="76.8" height="76.8"/>
<rect x="1440.5" y="633.1" class="st7" width="76.8" height="76.8"/>
<rect x="1517.4" y="633.1" class="st7" width="76.8" height="76.8"/>
<rect x="1594.2" y="633.1" class="st7" width="76.8" height="76.8"/>
<rect x="1363.7" y="710" class="st7" width="76.8" height="76.8"/>
<rect x="1440.5" y="710" class="st7" width="76.8" height="76.8"/>
<rect x="1517.4" y="710" class="st7" width="76.8" height="76.8"/>
<rect x="1363.7" y="786.8" class="st7" width="76.8" height="76.8"/>
<rect x="1440.5" y="786.8" class="st7" width="76.8" height="76.8"/>
<rect x="1517.4" y="786.8" class="st7" width="76.8" height="76.8"/>
<rect x="1594.2" y="710" class="st7" width="76.8" height="76.8"/>
<rect x="1671.1" y="633.1" class="st7" width="76.8" height="76.8"/>
<rect x="1747.9" y="633.1" class="st7" width="76.8" height="76.8"/>
<rect x="1824.8" y="633.1" class="st7" width="76.8" height="76.8"/>
<rect x="1901.6" y="633.1" class="st7" width="76.8" height="76.8"/>
<rect x="1978.5" y="633.1" class="st7" width="76.8" height="76.8"/>
<rect x="1671.1" y="710" class="st7" width="76.8" height="76.8"/>
<rect x="1747.9" y="710" class="st7" width="76.8" height="76.8"/>
<rect x="1747.9" y="786.8" class="st7" width="76.8" height="76.8"/>
<rect x="1824.8" y="710" class="st7" width="76.8" height="76.8"/>
<rect x="1901.6" y="710" class="st7" width="76.8" height="76.8"/>
<rect x="518.4" y="479.4" class="st7" width="76.8" height="76.8"/>
<rect x="518.4" y="402.6" class="st7" width="76.8" height="76.8"/>
<rect x="595.2" y="479.4" class="st7" width="76.8" height="76.8"/>
<rect x="672" y="479.4" class="st7" width="76.8" height="76.8"/>
<rect x="518.4" y="556.3" class="st7" width="76.8" height="76.8"/>
<rect x="595.2" y="556.3" class="st7" width="76.8" height="76.8"/>
<rect x="672" y="556.3" class="st7" width="76.8" height="76.8"/>
<rect x="748.9" y="479.4" class="st7" width="76.8" height="76.8"/>
<rect x="748.9" y="402.6" class="st7" width="76.8" height="76.8"/>
<rect x="825.7" y="325.7" class="st7" width="76.8" height="76.8"/>
<rect x="211" y="479.4" class="st7" width="76.8" height="76.8"/>
<rect x="287.8" y="479.4" class="st7" width="76.8" height="76.8"/>
<rect x="287.8" y="556.3" class="st7" width="76.8" height="76.8"/>
<rect x="364.7" y="479.4" class="st7" width="76.8" height="76.8"/>
<rect x="441.5" y="479.4" class="st7" width="76.8" height="76.8"/>
<rect x="364.7" y="248.9" class="st7" width="76.8" height="76.8"/>
<rect x="441.5" y="248.9" class="st7" width="76.8" height="76.8"/>
<rect x="518.4" y="248.9" class="st7" width="76.8" height="76.8"/>
<rect x="595.2" y="248.9" class="st7" width="76.8" height="76.8"/>
<rect x="672" y="325.7" class="st7" width="76.8" height="76.8"/>
<rect x="672" y="172" class="st7" width="76.8" height="76.8"/>
<rect x="748.9" y="172" class="st7" width="76.8" height="76.8"/>
<rect x="748.9" y="248.9" class="st7" width="76.8" height="76.8"/>
<rect x="825.7" y="172" class="st7" width="76.8" height="76.8"/>
<rect x="825.7" y="479.4" class="st7" width="76.8" height="76.8"/>
<rect x="902.6" y="479.4" class="st8" width="76.8" height="76.8"/>
<rect x="825.7" y="402.6" class="st8" width="76.8" height="76.8"/>
<rect x="1056.3" y="248.9" class="st8" width="76.8" height="76.8"/>
<rect x="979.4" y="479.4" class="st7" width="76.8" height="76.8"/>
<rect x="748.9" y="556.3" class="st7" width="76.8" height="76.8"/>
<rect x="825.7" y="556.3" class="st7" width="76.8" height="76.8"/>
<rect x="902.6" y="556.3" class="st8" width="76.8" height="76.8"/>
<rect x="979.4" y="556.3" class="st7" width="76.8" height="76.8"/>
<rect x="1056.3" y="479.4" class="st7" width="76.8" height="76.8"/>
<rect x="1133.1" y="479.4" class="st7" width="76.8" height="76.8"/>
<rect x="1210" y="479.4" class="st8" width="76.8" height="76.8"/>
<rect x="1286.8" y="479.4" class="st7" width="76.8" height="76.8"/>
<rect x="1056.3" y="556.3" class="st7" width="76.8" height="76.8"/>
<rect x="1056.3" y="325.7" class="st7" width="76.8" height="76.8"/>
<rect x="979.4" y="402.6" class="st7" width="76.8" height="76.8"/>
<rect x="1056.3" y="402.6" class="st7" width="76.8" height="76.8"/>
<rect x="902.6" y="402.6" class="st7" width="76.8" height="76.8"/>
<rect x="1210" y="325.7" class="st7" width="76.8" height="76.8"/>
<rect x="1210" y="402.6" class="st7" width="76.8" height="76.8"/>
<rect x="1286.8" y="402.6" class="st7" width="76.8" height="76.8"/>
<rect x="1133.1" y="556.3" class="st7" width="76.8" height="76.8"/>
<rect x="1210" y="556.3" class="st8" width="76.8" height="76.8"/>
<rect x="1133.1" y="325.7" class="st8" width="76.8" height="76.8"/>
<rect x="1133.1" y="402.6" class="st8" width="76.8" height="76.8"/>
<rect x="1286.8" y="556.3" class="st7" width="76.8" height="76.8"/>
<rect x="1363.7" y="479.4" class="st7" width="76.8" height="76.8"/>
<rect x="1440.5" y="479.4" class="st7" width="76.8" height="76.8"/>
<rect x="1517.4" y="479.4" class="st7" width="76.8" height="76.8"/>
<rect x="1594.2" y="479.4" class="st7" width="76.8" height="76.8"/>
<rect x="1363.7" y="556.3" class="st7" width="76.8" height="76.8"/>
<rect x="1440.5" y="556.3" class="st7" width="76.8" height="76.8"/>
<rect x="1517.4" y="556.3" class="st7" width="76.8" height="76.8"/>
<rect x="1594.2" y="556.3" class="st7" width="76.8" height="76.8"/>
<rect x="1671.1" y="479.4" class="st7" width="76.8" height="76.8"/>
<rect x="1747.9" y="479.4" class="st7" width="76.8" height="76.8"/>
<rect x="1824.8" y="479.4" class="st7" width="76.8" height="76.8"/>
<rect x="1671.1" y="402.6" class="st7" width="76.8" height="76.8"/>
<rect x="1747.9" y="402.6" class="st7" width="76.8" height="76.8"/>
<rect x="1824.8" y="402.6" class="st7" width="76.8" height="76.8"/>
<rect x="1594.2" y="325.7" class="st7" width="76.8" height="76.8"/>
<rect x="1517.4" y="325.7" class="st7" width="76.8" height="76.8"/>
<rect x="1671.1" y="325.7" class="st7" width="76.8" height="76.8"/>
<rect x="1747.9" y="325.7" class="st7" width="76.8" height="76.8"/>
<rect x="1440.5" y="248.9" class="st7" width="76.8" height="76.8"/>
<rect x="1363.7" y="248.9" class="st7" width="76.8" height="76.8"/>
<rect x="1517.4" y="248.9" class="st7" width="76.8" height="76.8"/>
<rect x="1594.2" y="248.9" class="st7" width="76.8" height="76.8"/>
<rect x="1901.6" y="479.4" class="st7" width="76.8" height="76.8"/>
<rect x="1056.3" y="172" class="st7" width="76.8" height="76.8"/>
<rect x="979.4" y="248.9" class="st7" width="76.8" height="76.8"/>
<rect x="1133.1" y="172" class="st7" width="76.8" height="76.8"/>
<rect x="1133.1" y="248.9" class="st7" width="76.8" height="76.8"/>
<rect x="1210" y="172" class="st7" width="76.8" height="76.8"/>
<rect x="1286.8" y="172" class="st7" width="76.8" height="76.8"/>
<rect x="1363.7" y="172" class="st7" width="76.8" height="76.8"/>
<rect x="1671.1" y="556.3" class="st7" width="76.8" height="76.8"/>
<rect x="1747.9" y="556.3" class="st7" width="76.8" height="76.8"/>
<rect x="1824.8" y="556.3" class="st7" width="76.8" height="76.8"/>
<rect x="1901.6" y="556.3" class="st7" width="76.8" height="76.8"/>
<rect x="1824.8" y="786.8" class="st7" width="76.8" height="76.8"/>
<rect x="1747.9" y="863.7" class="st8" width="76.8" height="76.8"/>
<rect x="1824.8" y="863.7" class="st8" width="76.8" height="76.8"/>
<rect x="1747.9" y="940.5" class="st8" width="76.8" height="76.8"/>
<rect x="1747.9" y="1017.4" class="st8" width="76.8" height="76.8"/>
<rect x="1671.1" y="1017.4" class="st8" width="76.8" height="76.8"/>
<rect x="1824.8" y="940.5" class="st8" width="76.8" height="76.8"/>
<rect x="1824.8" y="1017.4" class="st8" width="76.8" height="76.8"/>
<rect x="1901.6" y="786.8" class="st8" width="76.8" height="76.8"/>
<rect x="1978.5" y="786.8" class="st8" width="76.8" height="76.8"/>
<rect x="1978.5" y="710" class="st8" width="76.8" height="76.8"/>
<rect x="1901.6" y="863.7" class="st8" width="76.8" height="76.8"/>
<rect x="1901.6" y="940.5" class="st8" width="76.8" height="76.8"/>
<rect x="1978.5" y="863.7" class="st8" width="76.8" height="76.8"/>
<rect x="1978.5" y="940.5" class="st8" width="76.8" height="76.8"/>
<rect x="1901.6" y="1017.4" class="st8" width="76.8" height="76.8"/>
<rect x="1978.5" y="1017.4" class="st8" width="76.8" height="76.8"/>
<rect x="1901.6" y="1094.2" class="st8" width="76.8" height="76.8"/>
<rect x="1901.6" y="1171.1" class="st8" width="76.8" height="76.8"/>
<rect x="1978.5" y="1094.2" class="st8" width="76.8" height="76.8"/>
<rect x="1978.5" y="1171.1" class="st8" width="76.8" height="76.8"/>
<rect x="1978.5" y="1247.9" class="st8" width="76.8" height="76.8"/>
<rect x="2055.3" y="940.5" class="st8" width="76.8" height="76.8"/>
<rect x="2055.3" y="1017.4" class="st8" width="76.8" height="76.8"/>
<rect x="2055.3" y="1094.2" class="st8" width="76.8" height="76.8"/>
<rect x="2055.3" y="1171.1" class="st8" width="76.8" height="76.8"/>
<rect x="1671.1" y="1094.2" class="st8" width="76.8" height="76.8"/>
<rect x="1671.1" y="1171.1" class="st8" width="76.8" height="76.8"/>
<rect x="1671.1" y="1247.9" class="st8" width="76.8" height="76.8"/>
<rect x="1594.2" y="1171.1" class="st8" width="76.8" height="76.8"/>
<rect x="1594.2" y="1247.9" class="st8" width="76.8" height="76.8"/>
<rect x="1594.2" y="1324.8" class="st8" width="76.8" height="76.8"/>
<rect x="1747.9" y="1094.2" class="st8" width="76.8" height="76.8"/>
<rect x="1747.9" y="1171.1" class="st8" width="76.8" height="76.8"/>
<rect x="1824.8" y="1094.2" class="st8" width="76.8" height="76.8"/>
<rect x="1824.8" y="1171.1" class="st8" width="76.8" height="76.8"/>
<rect x="902.6" y="172" width="76.8" height="76.8"/>
<rect x="979.4" y="172" width="76.8" height="76.8"/>
<rect x="1363.7" y="95.2" width="76.8" height="76.8"/>
<rect x="1056.3" y="95.2" width="76.8" height="76.8"/>
<rect x="1133.1" y="95.2" width="76.8" height="76.8"/>
<rect x="1210" y="95.2" width="76.8" height="76.8"/>
<rect x="1286.8" y="95.2" width="76.8" height="76.8"/>
<rect x="902.6" y="863.7" width="76.8" height="76.8"/>
<rect x="595.2" y="863.7" width="76.8" height="76.8"/>
<rect x="672" y="863.7" width="76.8" height="76.8"/>
<rect x="748.9" y="863.7" width="76.8" height="76.8"/>
<rect x="825.7" y="863.7" width="76.8" height="76.8"/>
<rect x="1056.3" y="863.7" width="76.8" height="76.8"/>
<rect x="979.4" y="863.7" width="76.8" height="76.8"/>
<rect x="1133.1" y="786.8" width="76.8" height="76.8"/>
<rect x="1286.8" y="786.8" width="76.8" height="76.8"/>
<rect x="1210" y="786.8" width="76.8" height="76.8"/>
<rect x="1363.7" y="863.7" width="76.8" height="76.8"/>
<rect x="1517.4" y="863.7" width="76.8" height="76.8"/>
<rect x="1440.5" y="863.7" width="76.8" height="76.8"/>
<rect x="1671.1" y="786.8" width="76.8" height="76.8"/>
<rect x="1594.2" y="786.8" width="76.8" height="76.8"/>
<rect x="979.4" y="1939.6" width="76.8" height="76.8"/>
<rect x="672" y="1939.6" width="76.8" height="76.8"/>
<rect x="748.9" y="1939.6" width="76.8" height="76.8"/>
<rect x="825.7" y="1939.6" width="76.8" height="76.8"/>
<rect x="902.6" y="1939.6" width="76.8" height="76.8"/>
<rect x="1363.7" y="1939.6" width="76.8" height="76.8"/>
<rect x="1056.3" y="1939.6" width="76.8" height="76.8"/>
<rect x="1133.1" y="1939.6" width="76.8" height="76.8"/>
<rect x="1210" y="1939.6" width="76.8" height="76.8"/>
<rect x="1286.8" y="1939.6" width="76.8" height="76.8"/>
<rect x="1824.8" y="1709" width="76.8" height="76.8"/>
<rect x="1901.6" y="1632.2" width="76.8" height="76.8"/>
<rect x="1978.5" y="1555.3" width="76.8" height="76.8"/>
<rect x="1978.5" y="1478.5" width="76.8" height="76.8"/>
<rect x="1978.5" y="1401.6" width="76.8" height="76.8"/>
<rect x="1978.5" y="1324.8" width="76.8" height="76.8"/>
<rect x="2055.3" y="1478.5" width="76.8" height="76.8"/>
<rect x="2055.3" y="1401.6" width="76.8" height="76.8"/>
<rect x="2055.3" y="1324.8" width="76.8" height="76.8"/>
<rect x="2055.3" y="1247.9" width="76.8" height="76.8"/>
<rect x="1671.1" y="1709" width="76.8" height="76.8"/>
<rect x="1747.9" y="1709" width="76.8" height="76.8"/>
<rect x="1517.4" y="1862.7" width="76.8" height="76.8"/>
<rect x="1594.2" y="1785.9" width="76.8" height="76.8"/>
<rect x="1440.5" y="1862.7" width="76.8" height="76.8"/>
<rect x="672" y="95.2" width="76.8" height="76.8"/>
<rect x="748.9" y="95.2" width="76.8" height="76.8"/>
<rect x="825.7" y="95.2" width="76.8" height="76.8"/>
<rect x="1440.5" y="172" width="76.8" height="76.8"/>
<rect x="1517.4" y="172" width="76.8" height="76.8"/>
<rect x="1594.2" y="172" width="76.8" height="76.8"/>
<rect x="1671.1" y="248.9" width="76.8" height="76.8"/>
<rect x="1747.9" y="248.9" width="76.8" height="76.8"/>
<rect x="1824.8" y="248.9" width="76.8" height="76.8"/>
<rect x="1747.9" y="1247.9" width="76.8" height="76.8"/>
<rect x="1824.8" y="1247.9" width="76.8" height="76.8"/>
<rect x="1901.6" y="1247.9" width="76.8" height="76.8"/>
<rect x="1824.8" y="325.7" width="76.8" height="76.8"/>
<rect x="1901.6" y="402.6" width="76.8" height="76.8"/>
<rect x="1978.5" y="479.4" width="76.8" height="76.8"/>
<rect x="1978.5" y="556.3" width="76.8" height="76.8"/>
<rect x="2055.3" y="633.1" width="76.8" height="76.8"/>
<rect x="2055.3" y="710" width="76.8" height="76.8"/>
<rect x="2055.3" y="786.8" width="76.8" height="76.8"/>
<rect x="2055.3" y="863.7" width="76.8" height="76.8"/>
<rect x="1671.1" y="863.7" width="76.8" height="76.8"/>
<rect x="1671.1" y="940.5" width="76.8" height="76.8"/>
<rect x="1594.2" y="1017.4" width="76.8" height="76.8"/>
<rect x="1594.2" y="1094.2" width="76.8" height="76.8"/>
<rect x="1517.4" y="1171.1" width="76.8" height="76.8"/>
<rect x="1517.4" y="1247.9" width="76.8" height="76.8"/>
<rect x="1594.2" y="1401.6" width="76.8" height="76.8"/>
<rect x="1671.1" y="1401.6" width="76.8" height="76.8"/>
<rect x="1747.9" y="1478.5" width="76.8" height="76.8"/>
<rect x="1824.8" y="1401.6" width="76.8" height="76.8"/>
<rect x="1747.9" y="1555.3" width="76.8" height="76.8"/>
<rect x="1671.1" y="1324.8" width="76.8" height="76.8"/>
<rect x="1517.4" y="1324.8" width="76.8" height="76.8"/>
<rect x="2132.2" y="940.5" width="76.8" height="76.8"/>
<rect x="2132.2" y="1017.4" width="76.8" height="76.8"/>
<rect x="2132.2" y="1094.2" width="76.8" height="76.8"/>
<rect x="2132.2" y="1171.1" width="76.8" height="76.8"/>
<rect x="672" y="248.9" width="76.8" height="76.8"/>
<rect x="748.9" y="325.7" width="76.8" height="76.8"/>
<rect x="364.7" y="402.6" width="76.8" height="76.8"/>
<rect x="364.7" y="940.5" width="76.8" height="76.8"/>
<rect x="364.7" y="1017.4" width="76.8" height="76.8"/>
<rect x="287.8" y="402.6" width="76.8" height="76.8"/>
<rect x="211" y="402.6" width="76.8" height="76.8"/>
<rect x="287.8" y="863.7" width="76.8" height="76.8"/>
<rect x="211" y="863.7" width="76.8" height="76.8"/>
<rect x="134.1" y="479.4" width="76.8" height="76.8"/>
<rect x="211" y="556.3" width="76.8" height="76.8"/>
<rect x="287.8" y="633.1" width="76.8" height="76.8"/>
<rect x="211" y="710" width="76.8" height="76.8"/>
<rect x="364.7" y="863.7" width="76.8" height="76.8"/>
<rect x="441.5" y="786.8" width="76.8" height="76.8"/>
<rect x="518.4" y="786.8" width="76.8" height="76.8"/>
<rect x="364.7" y="1171.1" width="76.8" height="76.8"/>
<rect x="364.7" y="1247.9" width="76.8" height="76.8"/>
<rect x="364.7" y="1094.2" width="76.8" height="76.8"/>
<rect x="672" y="1247.9" width="76.8" height="76.8"/>
<rect x="672" y="1171.1" width="76.8" height="76.8"/>
<rect x="672" y="1401.6" width="76.8" height="76.8"/>
<rect x="672" y="1478.5" width="76.8" height="76.8"/>
<rect x="595.2" y="1555.3" width="76.8" height="76.8"/>
<rect x="672" y="1324.8" width="76.8" height="76.8"/>
<rect x="441.5" y="1094.2" width="76.8" height="76.8"/>
<rect x="518.4" y="1094.2" width="76.8" height="76.8"/>
<rect x="595.2" y="1094.2" width="76.8" height="76.8"/>
<rect x="364.7" y="1401.6" width="76.8" height="76.8"/>
<rect x="364.7" y="1478.5" width="76.8" height="76.8"/>
<rect x="364.7" y="1324.8" width="76.8" height="76.8"/>
<rect x="441.5" y="1247.9" width="76.8" height="76.8"/>
<rect x="441.5" y="1401.6" width="76.8" height="76.8"/>
<rect x="441.5" y="1324.8" width="76.8" height="76.8"/>
<rect x="518.4" y="1247.9" width="76.8" height="76.8"/>
<rect x="441.5" y="1171.1" class="st3" width="76.8" height="76.8"/>
<rect x="518.4" y="1171.1" class="st3" width="76.8" height="76.8"/>
<rect x="595.2" y="1171.1" class="st3" width="76.8" height="76.8"/>
<rect x="441.5" y="940.5" class="st8" width="76.8" height="76.8"/>
<rect x="518.4" y="940.5" class="st8" width="76.8" height="76.8"/>
<rect x="595.2" y="940.5" class="st8" width="76.8" height="76.8"/>
<rect x="672" y="1017.4" class="st8" width="76.8" height="76.8"/>
<rect x="1056.3" y="940.5" class="st8" width="76.8" height="76.8"/>
<rect x="979.4" y="1017.4" class="st8" width="76.8" height="76.8"/>
<rect x="1133.1" y="940.5" class="st8" width="76.8" height="76.8"/>
<rect x="1210" y="940.5" class="st8" width="76.8" height="76.8"/>
<rect x="1286.8" y="940.5" class="st8" width="76.8" height="76.8"/>
<rect x="595.2" y="556.3" class="st8" width="76.8" height="76.8"/>
<rect x="364.7" y="633.1" class="st8" width="76.8" height="76.8"/>
<rect x="364.7" y="786.8" class="st8" width="76.8" height="76.8"/>
<rect x="441.5" y="1017.4" class="st9" width="76.8" height="76.8"/>
<rect x="518.4" y="1017.4" class="st9" width="76.8" height="76.8"/>
<rect x="441.5" y="863.7" class="st10" width="76.8" height="76.8"/>
<rect x="518.4" y="863.7" class="st10" width="76.8" height="76.8"/>
<rect x="1133.1" y="863.7" class="st10" width="76.8" height="76.8"/>
<rect x="1210" y="863.7" class="st10" width="76.8" height="76.8"/>
<rect x="1286.8" y="863.7" class="st10" width="76.8" height="76.8"/>
<rect x="1210" y="248.9" class="st10" width="76.8" height="76.8"/>
<rect x="1286.8" y="248.9" class="st10" width="76.8" height="76.8"/>
<rect x="1286.8" y="325.7" class="st10" width="76.8" height="76.8"/>
<rect x="1363.7" y="325.7" class="st10" width="76.8" height="76.8"/>
<rect x="825.7" y="248.9" class="st10" width="76.8" height="76.8"/>
<rect x="902.6" y="248.9" class="st10" width="76.8" height="76.8"/>
<rect x="902.6" y="325.7" class="st10" width="76.8" height="76.8"/>
<rect x="979.4" y="325.7" class="st10" width="76.8" height="76.8"/>
<rect x="518.4" y="325.7" class="st10" width="76.8" height="76.8"/>
<rect x="595.2" y="325.7" class="st10" width="76.8" height="76.8"/>
<rect x="595.2" y="402.6" class="st10" width="76.8" height="76.8"/>
<rect x="672" y="402.6" class="st10" width="76.8" height="76.8"/>
<rect x="364.7" y="556.3" class="st10" width="76.8" height="76.8"/>
<rect x="441.5" y="556.3" class="st10" width="76.8" height="76.8"/>
<rect x="1440.5" y="325.7" class="st10" width="76.8" height="76.8"/>
<rect x="1363.7" y="402.6" class="st10" width="76.8" height="76.8"/>
<rect x="1440.5" y="402.6" class="st10" width="76.8" height="76.8"/>
<rect x="1517.4" y="402.6" class="st10" width="76.8" height="76.8"/>
<rect x="1594.2" y="402.6" class="st10" width="76.8" height="76.8"/>
<rect x="1363.7" y="940.5" class="st10" width="76.8" height="76.8"/>
<rect x="1440.5" y="940.5" class="st10" width="76.8" height="76.8"/>
<rect x="1517.4" y="940.5" class="st10" width="76.8" height="76.8"/>
<rect x="1594.2" y="863.7" class="st10" width="76.8" height="76.8"/>
<rect x="979.4" y="940.5" class="st10" width="76.8" height="76.8"/>
<rect x="672" y="940.5" class="st10" width="76.8" height="76.8"/>
<rect x="748.9" y="940.5" class="st10" width="76.8" height="76.8"/>
<rect x="748.9" y="1478.5" class="st10" width="76.8" height="76.8"/>
<rect x="825.7" y="1401.6" class="st10" width="76.8" height="76.8"/>
<rect x="1363.7" y="1862.7" class="st10" width="76.8" height="76.8"/>
<rect x="1594.2" y="1709" class="st10" width="76.8" height="76.8"/>
<rect x="1440.5" y="1785.9" class="st10" width="76.8" height="76.8"/>
<rect x="1824.8" y="1478.5" class="st10" width="76.8" height="76.8"/>
<rect x="1517.4" y="1401.6" class="st10" width="76.8" height="76.8"/>
<rect x="1594.2" y="1478.5" class="st10" width="76.8" height="76.8"/>
<rect x="1824.8" y="1555.3" class="st10" width="76.8" height="76.8"/>
<rect x="1517.4" y="1785.9" class="st10" width="76.8" height="76.8"/>
<rect x="825.7" y="1324.8" class="st10" width="76.8" height="76.8"/>
<rect x="825.7" y="940.5" class="st10" width="76.8" height="76.8"/>
<rect x="902.6" y="940.5" class="st10" width="76.8" height="76.8"/>
<rect x="595.2" y="1017.4" class="st9" width="76.8" height="76.8"/>
<rect x="748.9" y="1017.4" class="st9" width="76.8" height="76.8"/>
<rect x="825.7" y="1017.4" class="st9" width="76.8" height="76.8"/>
<rect x="902.6" y="1017.4" class="st9" width="76.8" height="76.8"/>
<rect x="748.9" y="1094.2" class="st9" width="76.8" height="76.8"/>
<rect x="672" y="1094.2" class="st9" width="76.8" height="76.8"/>
<rect x="825.7" y="1094.2" class="st9" width="76.8" height="76.8"/>
<rect x="902.6" y="1094.2" class="st9" width="76.8" height="76.8"/>
<rect x="979.4" y="1094.2" class="st9" width="76.8" height="76.8"/>
<rect x="748.9" y="1171.1" class="st9" width="76.8" height="76.8"/>
<rect x="825.7" y="1171.1" class="st9" width="76.8" height="76.8"/>
<rect x="902.6" y="1171.1" class="st9" width="76.8" height="76.8"/>
<rect x="748.9" y="1247.9" class="st9" width="76.8" height="76.8"/>
<rect x="748.9" y="1325.3" class="st9" width="76.8" height="76.8"/>
<rect x="748.9" y="1402.1" class="st9" width="76.8" height="76.8"/>
<rect x="825.7" y="1247.9" class="st9" width="76.8" height="76.8"/>
<rect x="902.6" y="1247.9" class="st9" width="76.8" height="76.8"/>
<rect x="1363.7" y="1171.1" class="st9" width="76.8" height="76.8"/>
<rect x="1363.7" y="1247.9" class="st9" width="76.8" height="76.8"/>
<rect x="1363.7" y="1324.8" class="st9" width="76.8" height="76.8"/>
<rect x="1363.7" y="1401.6" class="st9" width="76.8" height="76.8"/>
<rect x="1440.5" y="1171.1" class="st9" width="76.8" height="76.8"/>
<rect x="1440.5" y="1247.9" class="st9" width="76.8" height="76.8"/>
<rect x="1440.5" y="1324.8" class="st9" width="76.8" height="76.8"/>
<rect x="1440.5" y="1401.6" class="st9" width="76.8" height="76.8"/>
<rect x="1286.8" y="1556.3" class="st9" width="76.8" height="76.8"/>
<rect x="1363.7" y="1556.3" class="st9" width="76.8" height="76.8"/>
<rect x="1440.5" y="1556.3" class="st9" width="76.8" height="76.8"/>
<rect x="1363.7" y="1478.5" class="st9" width="76.8" height="76.8"/>
<rect x="1440.5" y="1478.5" class="st9" width="76.8" height="76.8"/>
<rect x="1747.9" y="1325.3" class="st9" width="76.8" height="76.8"/>
<rect x="1747.9" y="1401.6" class="st9" width="76.8" height="76.8"/>
<rect x="1671.3" y="1478.2" class="st9" width="76.8" height="76.8"/>
<rect x="1517.4" y="1478.2" class="st9" width="76.8" height="76.8"/>
<rect x="1824.8" y="1325.3" class="st9" width="76.8" height="76.8"/>
<rect x="1286.8" y="1633.1" class="st9" width="76.8" height="76.8"/>
<rect x="1210" y="1633.1" class="st9" width="76.8" height="76.8"/>
<rect x="1363.7" y="1633.1" class="st9" width="76.8" height="76.8"/>
<rect x="1440.5" y="1633.1" class="st9" width="76.8" height="76.8"/>
<rect x="1517.4" y="1556.3" class="st9" width="76.8" height="76.8"/>
<rect x="1594.2" y="1556.3" class="st9" width="76.8" height="76.8"/>
<rect x="1671.1" y="1556.3" class="st9" width="76.8" height="76.8"/>
<rect x="1517.4" y="1633.1" class="st9" width="76.8" height="76.8"/>
<rect x="1440.5" y="1709" class="st9" width="76.8" height="76.8"/>
<rect x="1517.4" y="1709" class="st9" width="76.8" height="76.8"/>
<rect x="1594.2" y="1633.1" class="st9" width="76.8" height="76.8"/>
<rect x="1671.1" y="1633.1" class="st9" width="76.8" height="76.8"/>
<rect x="1747.9" y="1633.1" class="st9" width="76.8" height="76.8"/>
<rect x="1824.8" y="1633.1" class="st9" width="76.8" height="76.8"/>
<rect x="1210" y="1709" class="st9" width="76.8" height="76.8"/>
<rect x="1286.8" y="1709" class="st9" width="76.8" height="76.8"/>
<rect x="1363.7" y="1709" class="st9" width="76.8" height="76.8"/>
<rect x="1210" y="1785.9" class="st9" width="76.8" height="76.8"/>
<rect x="1133.1" y="1632.2" class="st9" width="76.8" height="76.8"/>
<rect x="1133.1" y="1709" class="st9" width="76.8" height="76.8"/>
<rect x="1133.1" y="1785.9" class="st9" width="76.8" height="76.8"/>
<rect x="1056.3" y="1785.9" class="st9" width="76.8" height="76.8"/>
<rect x="1133.1" y="1862.7" class="st9" width="76.8" height="76.8"/>
<rect x="1286.8" y="1785.9" class="st9" width="76.8" height="76.8"/>
<rect x="1210" y="1862.7" class="st9" width="76.8" height="76.8"/>
<rect x="1286.8" y="1862.7" class="st9" width="76.8" height="76.8"/>
<rect x="1901.6" y="1325.3" class="st9" width="76.8" height="76.8"/>
<rect x="1901.6" y="1402.1" class="st9" width="76.8" height="76.8"/>
<rect x="1901.6" y="1478" class="st9" width="76.8" height="76.8"/>
<rect x="1901.6" y="1554.8" class="st9" width="76.8" height="76.8"/>
<rect x="1363.7" y="1785.9" class="st9" width="76.8" height="76.8"/>
<rect x="1363.7" y="1017.4" class="st9" width="76.8" height="76.8"/>
<rect x="1440.5" y="1017.4" class="st9" width="76.8" height="76.8"/>
<rect x="1517.4" y="1017.4" class="st9" width="76.8" height="76.8"/>
<rect x="1363.7" y="1094.2" class="st9" width="76.8" height="76.8"/>
<rect x="1286.8" y="1017.4" class="st9" width="76.8" height="76.8"/>
<rect x="1133.1" y="1017.4" class="st9" width="76.8" height="76.8"/>
<rect x="1210" y="1017.4" class="st9" width="76.8" height="76.8"/>
<rect x="1056.3" y="1017.4" class="st9" width="76.8" height="76.8"/>
<rect x="1286.8" y="1094.2" class="st9" width="76.8" height="76.8"/>
<rect x="1440.5" y="1094.2" class="st9" width="76.8" height="76.8"/>
<rect x="1517.4" y="1094.2" class="st9" width="76.8" height="76.8"/>
<rect x="441.5" y="1633.1" class="st9" width="76.8" height="76.8"/>
<rect x="518.4" y="1633.1" class="st9" width="76.8" height="76.8"/>
<rect x="595.2" y="1633.1" class="st9" width="76.8" height="76.8"/>
<rect x="441.5" y="1710" class="st9" width="76.8" height="76.8"/>
<rect x="518.4" y="1710" class="st9" width="76.8" height="76.8"/>
<rect x="595.2" y="1710" class="st9" width="76.8" height="76.8"/>
<rect x="672" y="1633.1" class="st9" width="76.8" height="76.8"/>
<rect x="672" y="1556.3" class="st9" width="76.8" height="76.8"/>
<rect x="748.9" y="1633.1" class="st9" width="76.8" height="76.8"/>
<rect x="825.7" y="1633.1" class="st9" width="76.8" height="76.8"/>
<rect x="672" y="1710" class="st9" width="76.8" height="76.8"/>
<rect x="518.4" y="1785.9" class="st9" width="76.8" height="76.8"/>
<rect x="595.2" y="1785.9" class="st9" width="76.8" height="76.8"/>
<rect x="672" y="1785.9" class="st9" width="76.8" height="76.8"/>
<rect x="748.9" y="1710" class="st9" width="76.8" height="76.8"/>
<rect x="825.7" y="1710" class="st9" width="76.8" height="76.8"/>
<rect x="902.6" y="1633.1" class="st9" width="76.8" height="76.8"/>
<rect x="979.4" y="1633.1" class="st9" width="76.8" height="76.8"/>
<rect x="825.7" y="1556.3" class="st9" width="76.8" height="76.8"/>
<rect x="902.6" y="1556.3" class="st9" width="76.8" height="76.8"/>
<rect x="979.4" y="1556.3" class="st9" width="76.8" height="76.8"/>
<rect x="1056.3" y="1633.1" class="st9" width="76.8" height="76.8"/>
<rect x="902.6" y="1710" class="st9" width="76.8" height="76.8"/>
<rect x="902.6" y="1402.1" class="st9" width="76.8" height="76.8"/>
<rect x="902.6" y="1325.3" class="st9" width="76.8" height="76.8"/>
<rect x="902.6" y="1479" class="st9" width="76.8" height="76.8"/>
<rect x="825.7" y="1479" class="st9" width="76.8" height="76.8"/>
<rect x="595.2" y="1862.7" class="st9" width="76.8" height="76.8"/>
<rect x="672" y="1862.7" class="st9" width="76.8" height="76.8"/>
<rect x="748.9" y="1862.7" class="st9" width="76.8" height="76.8"/>
<rect x="825.7" y="1862.7" class="st9" width="76.8" height="76.8"/>
<rect x="902.6" y="1862.7" class="st9" width="76.8" height="76.8"/>
<rect x="979.4" y="1862.7" class="st9" width="76.8" height="76.8"/>
<rect x="1056.3" y="1862.7" class="st9" width="76.8" height="76.8"/>
<rect x="979.4" y="1710" class="st9" width="76.8" height="76.8"/>
<rect x="1594.2" y="940.5" class="st9" width="76.8" height="76.8"/>
<rect x="595.2" y="1247.9" class="st3" width="76.8" height="76.8"/>
<rect x="595.2" y="1324.8" class="st3" width="76.8" height="76.8"/>
<rect x="595.2" y="1401.6" class="st3" width="76.8" height="76.8"/>
<rect x="595.2" y="1478.5" class="st3" width="76.8" height="76.8"/>
<rect x="441.5" y="1478.5" class="st3" width="76.8" height="76.8"/>
<rect x="518.4" y="1478.5" class="st3" width="76.8" height="76.8"/>
<rect x="518.4" y="1401.6" width="76.8" height="76.8"/>
<rect x="441.5" y="1555.3" width="76.8" height="76.8"/>
<rect x="518.4" y="1555.3" width="76.8" height="76.8"/>
<rect x="518.4" y="1324.8" width="76.8" height="76.8"/>
<rect x="979.4" y="1171.1" width="76.8" height="76.8"/>
<rect x="979.4" y="1247.9" width="76.8" height="76.8"/>
<rect x="1286.8" y="1247.9" width="76.8" height="76.8"/>
<rect x="1286.8" y="1171.1" width="76.8" height="76.8"/>
<rect x="1286.8" y="1401.6" width="76.8" height="76.8"/>
<rect x="1286.8" y="1478.5" width="76.8" height="76.8"/>
<rect x="1210" y="1555.3" width="76.8" height="76.8"/>
<rect x="1286.8" y="1324.8" width="76.8" height="76.8"/>
<rect x="1056.3" y="1094.2" width="76.8" height="76.8"/>
<rect x="1133.1" y="1094.2" width="76.8" height="76.8"/>
<rect x="1210" y="1094.2" width="76.8" height="76.8"/>
<rect x="979.4" y="1401.6" width="76.8" height="76.8"/>
<rect x="979.4" y="1478.5" width="76.8" height="76.8"/>
<rect x="979.4" y="1324.8" width="76.8" height="76.8"/>
<rect x="1056.3" y="1247.9" width="76.8" height="76.8"/>
<rect x="1056.3" y="1401.6" width="76.8" height="76.8"/>
<rect x="1056.3" y="1324.8" width="76.8" height="76.8"/>
<rect x="1133.1" y="1247.9" width="76.8" height="76.8"/>
<rect x="1056.3" y="1171.1" class="st3" width="76.8" height="76.8"/>
<rect x="1133.1" y="1171.1" class="st3" width="76.8" height="76.8"/>
<rect x="1210" y="1171.1" class="st3" width="76.8" height="76.8"/>
<rect x="1210" y="1247.9" class="st3" width="76.8" height="76.8"/>
<rect x="1210" y="1324.8" class="st3" width="76.8" height="76.8"/>
<rect x="1210" y="1401.6" class="st3" width="76.8" height="76.8"/>
<rect x="1210" y="1478.5" class="st3" width="76.8" height="76.8"/>
<rect x="1056.3" y="1478.5" class="st3" width="76.8" height="76.8"/>
<rect x="1133.1" y="1478.5" class="st3" width="76.8" height="76.8"/>
<rect x="1133.1" y="1401.6" width="76.8" height="76.8"/>
<rect x="1056.3" y="1555.3" width="76.8" height="76.8"/>
<rect x="1133.1" y="1555.3" width="76.8" height="76.8"/>
<rect x="979.4" y="1785.9" width="76.8" height="76.8"/>
<rect x="1056.3" y="1709" width="76.8" height="76.8"/>
<rect x="825.7" y="1785.9" width="76.8" height="76.8"/>
<rect x="748.9" y="1785.9" width="76.8" height="76.8"/>
<rect x="902.6" y="1785.9" width="76.8" height="76.8"/>
<rect x="1133.1" y="1324.8" width="76.8" height="76.8"/>
<rect x="364.7" y="1632.2" width="76.8" height="76.8"/>
<rect x="364.7" y="1709" width="76.8" height="76.8"/>
<rect x="441.5" y="1785.9" width="76.8" height="76.8"/>
<rect x="518.4" y="1862.7" width="76.8" height="76.8"/>
<rect x="595.2" y="1939.6" width="76.8" height="76.8"/>
<rect x="364.7" y="1555.3" width="76.8" height="76.8"/>
<rect x="134.1" y="786.8" width="76.8" height="76.8"/>
</svg>
