<?xml version="1.0" encoding="utf-8"?>
<!-- Generator: Adobe Illustrator 19.0.1, SVG Export Plug-In . SVG Version: 6.00 Build 0)  -->
<svg version="1.1" id="Layer_1" xmlns="http://www.w3.org/2000/svg" xmlns:xlink="http://www.w3.org/1999/xlink" x="0px" y="0px"
	 viewBox="0 0 260 190.7" style="enable-background:new 0 0 260 190.7;" xml:space="preserve">
<style type="text/css">
	.st0{fill:#CC401F;}
	.st1{fill:#FFFFFF;}
	.st2{fill:#0000FF;}
	.st3{fill:#009C00;}
	.st4{fill:#FF0000;}
	.st5{fill:#987855;}
	.st6{fill:#3B2724;}
	.st7{fill:#F5DFC2;}
	.st8{fill:#D6B598;}
	.st9{fill:#22B04C;}
	.st10{fill:#CCCCCC;}
	.st11{fill:#B3B3B3;}
	.st12{fill:#4034AD;}
</style>
<rect x="94.2" y="80.7" width="4.8" height="4.8"/>
<rect x="94.2" y="71.2" width="4.8" height="4.8"/>
<rect x="94.2" y="66.4" width="4.8" height="4.8"/>
<rect x="99" y="80.7" class="st12" width="4.8" height="4.8"/>
<rect x="99" y="75.9" width="4.8" height="4.8"/>
<rect x="103.8" y="80.7" width="4.8" height="4.8"/>
<rect x="103.8" y="75.9" class="st12" width="4.8" height="4.8"/>
<rect x="108.5" y="80.7" class="st12" width="4.8" height="4.8"/>
<rect x="108.5" y="75.9" class="st11" width="4.8" height="4.8"/>
<rect x="113.3" y="80.7" class="st12" width="4.8" height="4.8"/>
<rect x="113.3" y="75.9" width="4.8" height="4.8"/>
<rect x="99" y="71.2" class="st12" width="4.8" height="4.8"/>
<rect x="99" y="66.4" class="st12" width="4.8" height="4.8"/>
<rect x="103.8" y="71.2" class="st11" width="4.8" height="4.8"/>
<rect x="103.8" y="66.4" width="4.8" height="4.8"/>
<rect x="108.5" y="71.2" class="st1" width="4.8" height="4.8"/>
<rect x="108.5" y="66.4" class="st11" width="4.8" height="4.8"/>
<rect x="113.3" y="71.2" class="st11" width="4.8" height="4.8"/>
<rect x="113.3" y="66.4" class="st1" width="4.8" height="4.8"/>
<rect x="79.9" y="99.8" width="4.8" height="4.8"/>
<rect x="79.9" y="95" width="4.8" height="4.8"/>
<rect x="84.7" y="99.8" width="4.8" height="4.8"/>
<rect x="84.7" y="95" class="st12" width="4.8" height="4.8"/>
<rect x="89.5" y="99.8" width="4.8" height="4.8"/>
<rect x="89.5" y="95" width="4.8" height="4.8"/>
<rect x="79.9" y="90.2" width="4.8" height="4.8"/>
<rect x="84.7" y="90.2" width="4.8" height="4.8"/>
<rect x="89.5" y="90.2" class="st12" width="4.8" height="4.8"/>
<rect x="89.5" y="85.5" width="4.8" height="4.8"/>
<rect x="94.2" y="90.2" width="4.8" height="4.8"/>
<rect x="94.2" y="85.5" class="st12" width="4.8" height="4.8"/>
<rect x="99" y="85.5" width="4.8" height="4.8"/>
<rect x="108.5" y="85.5" width="4.8" height="4.8"/>
<rect x="113.3" y="85.5" width="4.8" height="4.8"/>
<rect x="118.1" y="80.7" width="4.8" height="4.8"/>
<rect x="118.1" y="71.2" width="4.8" height="4.8"/>
<rect x="118.1" y="66.4" class="st11" width="4.8" height="4.8"/>
<rect x="122.8" y="66.4" width="4.8" height="4.8"/>
<rect x="118.1" y="90.2" width="4.8" height="4.8"/>
<rect x="118.1" y="85.5" class="st12" width="4.8" height="4.8"/>
<rect x="122.8" y="90.2" width="4.8" height="4.8"/>
<rect x="122.8" y="85.5" width="4.8" height="4.8"/>
<rect x="89.5" y="61.6" width="4.8" height="4.8"/>
<rect x="89.5" y="56.9" width="4.8" height="4.8"/>
<rect x="94.2" y="61.6" class="st12" width="4.8" height="4.8"/>
<rect x="94.2" y="56.9" width="4.8" height="4.8"/>
<rect x="99" y="61.6" width="4.8" height="4.8"/>
<rect x="108.5" y="61.6" width="4.8" height="4.8"/>
<rect x="113.3" y="61.6" class="st11" width="4.8" height="4.8"/>
<rect x="113.3" y="56.9" width="4.8" height="4.8"/>
<rect x="127.6" y="42.6" width="4.8" height="4.8"/>
<rect x="132.4" y="42.6" class="st11" width="4.8" height="4.8"/>
<rect x="132.4" y="37.8" width="4.8" height="4.8"/>
<rect x="137.1" y="42.6" class="st1" width="4.8" height="4.8"/>
<rect x="137.1" y="37.8" class="st11" width="4.8" height="4.8"/>
<rect x="141.9" y="42.6" class="st11" width="4.8" height="4.8"/>
<rect x="141.9" y="37.8" class="st1" width="4.8" height="4.8"/>
<rect x="146.7" y="42.6" width="4.8" height="4.8"/>
<rect x="146.7" y="37.8" class="st11" width="4.8" height="4.8"/>
<rect x="151.4" y="37.8" width="4.8" height="4.8"/>
<rect x="137.1" y="33" width="4.8" height="4.8"/>
<rect x="141.9" y="33" class="st11" width="4.8" height="4.8"/>
<rect x="141.9" y="28.3" width="4.8" height="4.8"/>
<rect x="146.7" y="33" class="st1" width="4.8" height="4.8"/>
<rect x="146.7" y="28.3" width="4.8" height="4.8"/>
<rect x="151.4" y="33" width="4.8" height="4.8"/>
<rect x="151.4" y="28.3" width="4.8" height="4.8"/>
<rect x="118.1" y="61.6" class="st1" width="4.8" height="4.8"/>
<rect x="118.1" y="56.9" class="st11" width="4.8" height="4.8"/>
<rect x="122.8" y="61.6" class="st11" width="4.8" height="4.8"/>
<rect x="122.8" y="56.9" class="st1" width="4.8" height="4.8"/>
<rect x="127.6" y="61.6" width="4.8" height="4.8"/>
<rect x="127.6" y="56.9" class="st11" width="4.8" height="4.8"/>
<rect x="132.4" y="56.9" width="4.8" height="4.8"/>
<rect x="118.1" y="52.1" width="4.8" height="4.8"/>
<rect x="122.8" y="52.1" class="st11" width="4.8" height="4.8"/>
<rect x="122.8" y="47.3" width="4.8" height="4.8"/>
<rect x="127.6" y="52.1" class="st1" width="4.8" height="4.8"/>
<rect x="127.6" y="47.3" class="st11" width="4.8" height="4.8"/>
<rect x="132.4" y="52.1" class="st11" width="4.8" height="4.8"/>
<rect x="132.4" y="47.3" class="st1" width="4.8" height="4.8"/>
<rect x="137.1" y="52.1" width="4.8" height="4.8"/>
<rect x="137.1" y="47.3" class="st11" width="4.8" height="4.8"/>
<rect x="141.9" y="47.3" width="4.8" height="4.8"/>
<path d="M60.8,163.5H27.3v-4.8h-4.8v-14.4h4.8v-4.8h4.8v-4.8l4.8,0V130H22.5v-9.6h4.8v-4.8h23.9v4.8H56v4.8h4.8v9.6H56v4.8h-4.8v4.8
	H56v4.8h4.8V163.5z M46.4,125.2v-4.8H27.3v4.8H46.4z M51.2,153.9v-4.8H32.1v-4.8h-4.8v9.6H51.2z M41.6,144.4v-4.8h-9.6v4.8H41.6z
	 M46.4,139.6v-4.8h-4.8v4.8H46.4z M51.2,134.8v-9.6h-4.8v9.6H51.2z"/>
<path d="M98.9,158.7h-4.8v4.8H65.4v-4.8h-4.8v-38.3h4.8v-4.8h23.9v4.8h4.8v4.8h4.8V158.7z M84.5,153.9v-4.8H70.2v-9.6h14.4v-4.8
	H70.2v-9.6h14.4v-4.8H65.4v33.5H84.5z M89.3,134.8v-9.6h-4.8v9.6H89.3z M89.3,149.2v-9.6h-4.8v9.6H89.3z"/>
<path d="M117.8,163.5h-14.4v-4.8h-4.8v-38.3h4.8v-4.8h9.6v4.8h4.8V163.5z M108.2,125.2v-4.8h-4.8v4.8H108.2z M108.2,153.9V130h-4.8
	v23.9H108.2z"/>
<path d="M146.3,163.5H132v-4.8h-4.8v-4.8h-4.8v-14.4h-4.8V130h4.8v-9.6h4.8v-4.8h9.6v4.8h4.8v9.6h4.8v9.6h-4.8v9.6h4.8V163.5z
	 M136.8,134.8V130H132v-9.6h-4.8v9.6h-4.8v4.8h4.8v14.4h4.8v-14.4H136.8z M136.8,153.9v-4.8H132v4.8H136.8z"/>
<path d="M184.4,163.5h-14.4v-4.8h-4.8v4.8h-14.4v-4.8h-4.8v-33.5h4.8v-4.8h4.8v-4.8h19.1v4.8h4.8v4.8h4.8V163.5z M174.9,153.9v-28.7
	h-4.8v9.6h-14.4v-9.6h-4.8v28.7h4.8v-14.4h14.4v14.4H174.9z M170.1,125.2v-4.8h-14.4v4.8H170.1z"/>
<path d="M213,139.6h-9.6v23.9H189v-4.8h-4.8v-23.9h4.8V130h4.8v-4.8h14.4v4.8h4.8V139.6z M193.8,153.9v-19.1H189v19.1H193.8z
	 M203.4,134.8V130h-9.6v4.8H203.4z"/>
<path d="M236.9,163.5h-14.4v-4.8h-4.8v-4.8H213v-14.4h-4.8V130h4.8v-9.6h4.8v-4.8h9.6v4.8h4.8v9.6h4.8v9.6h-4.8v9.6h4.8V163.5z
	 M227.4,134.8V130h-4.8v-9.6h-4.8v9.6H213v4.8h4.8v14.4h4.8v-14.4H227.4z M227.4,153.9v-4.8h-4.8v4.8H227.4z"/>
<g>
	<rect x="161" y="80.7" width="4.8" height="4.8"/>
	<rect x="161" y="71.2" width="4.8" height="4.8"/>
	<rect x="161" y="66.4" width="4.8" height="4.8"/>
	<rect x="156.2" y="80.7" class="st12" width="4.8" height="4.8"/>
	<rect x="156.2" y="75.9" width="4.8" height="4.8"/>
	<rect x="151.4" y="80.7" width="4.8" height="4.8"/>
	<rect x="151.4" y="75.9" class="st12" width="4.8" height="4.8"/>
	<rect x="146.7" y="80.7" class="st12" width="4.8" height="4.8"/>
	<rect x="146.7" y="75.9" class="st11" width="4.8" height="4.8"/>
	<rect x="141.9" y="80.7" class="st12" width="4.8" height="4.8"/>
	<rect x="141.9" y="75.9" width="4.8" height="4.8"/>
	<rect x="156.2" y="71.2" class="st12" width="4.8" height="4.8"/>
	<rect x="156.2" y="66.4" class="st12" width="4.8" height="4.8"/>
	<rect x="151.4" y="71.2" class="st11" width="4.8" height="4.8"/>
	<rect x="151.4" y="66.4" width="4.8" height="4.8"/>
	<rect x="146.7" y="71.2" class="st1" width="4.8" height="4.8"/>
	<rect x="146.7" y="66.4" class="st11" width="4.8" height="4.8"/>
	<rect x="141.9" y="71.2" class="st11" width="4.8" height="4.8"/>
	<rect x="141.9" y="66.4" class="st1" width="4.8" height="4.8"/>
	<rect x="175.3" y="99.8" width="4.8" height="4.8"/>
	<rect x="175.3" y="95" width="4.8" height="4.8"/>
	<rect x="170.5" y="99.8" width="4.8" height="4.8"/>
	<rect x="170.5" y="95" class="st12" width="4.8" height="4.8"/>
	<rect x="165.7" y="99.8" width="4.8" height="4.8"/>
	<rect x="165.7" y="95" width="4.8" height="4.8"/>
	<rect x="175.3" y="90.2" width="4.8" height="4.8"/>
	<rect x="170.5" y="90.2" width="4.8" height="4.8"/>
	<rect x="165.7" y="90.2" class="st12" width="4.8" height="4.8"/>
	<rect x="165.7" y="85.5" width="4.8" height="4.8"/>
	<rect x="161" y="90.2" width="4.8" height="4.8"/>
	<rect x="161" y="85.5" class="st12" width="4.8" height="4.8"/>
	<rect x="156.2" y="85.5" width="4.8" height="4.8"/>
	<rect x="146.7" y="85.5" width="4.8" height="4.8"/>
	<rect x="141.9" y="85.5" width="4.8" height="4.8"/>
	<rect x="137.1" y="80.7" width="4.8" height="4.8"/>
	<rect x="137.1" y="71.2" width="4.8" height="4.8"/>
	<rect x="137.1" y="66.4" class="st11" width="4.8" height="4.8"/>
	<rect x="132.4" y="66.4" width="4.8" height="4.8"/>
	<rect x="137.1" y="90.2" width="4.8" height="4.8"/>
	<rect x="137.1" y="85.5" class="st12" width="4.8" height="4.8"/>
	<rect x="132.4" y="90.2" width="4.8" height="4.8"/>
	<rect x="132.4" y="85.5" width="4.8" height="4.8"/>
	<rect x="165.7" y="61.6" width="4.8" height="4.8"/>
	<rect x="165.7" y="56.9" width="4.8" height="4.8"/>
	<rect x="161" y="61.6" class="st12" width="4.8" height="4.8"/>
	<rect x="161" y="56.9" width="4.8" height="4.8"/>
	<rect x="156.2" y="61.6" width="4.8" height="4.8"/>
	<rect x="146.7" y="61.6" width="4.8" height="4.8"/>
	<rect x="141.9" y="61.6" class="st11" width="4.8" height="4.8"/>
	<rect x="141.9" y="56.9" width="4.8" height="4.8"/>
	<rect x="127.6" y="42.6" width="4.8" height="4.8"/>
	<rect x="122.8" y="42.6" class="st11" width="4.8" height="4.8"/>
	<rect x="122.8" y="37.8" width="4.8" height="4.8"/>
	<rect x="118.1" y="42.6" class="st1" width="4.8" height="4.8"/>
	<rect x="118.1" y="37.8" class="st11" width="4.8" height="4.8"/>
	<rect x="113.3" y="42.6" class="st11" width="4.8" height="4.8"/>
	<rect x="113.3" y="37.8" class="st1" width="4.8" height="4.8"/>
	<rect x="108.5" y="42.6" width="4.8" height="4.8"/>
	<rect x="108.5" y="37.8" class="st11" width="4.8" height="4.8"/>
	<rect x="103.8" y="37.8" width="4.8" height="4.8"/>
	<rect x="118.1" y="33" width="4.8" height="4.8"/>
	<rect x="113.3" y="33" class="st11" width="4.8" height="4.8"/>
	<rect x="113.3" y="28.3" width="4.8" height="4.8"/>
	<rect x="108.5" y="33" class="st1" width="4.8" height="4.8"/>
	<rect x="108.5" y="28.3" width="4.8" height="4.8"/>
	<rect x="103.8" y="33" width="4.8" height="4.8"/>
	<rect x="103.8" y="28.3" width="4.8" height="4.8"/>
	<rect x="137.1" y="61.6" class="st1" width="4.8" height="4.8"/>
	<rect x="137.1" y="56.9" class="st11" width="4.8" height="4.8"/>
	<rect x="132.4" y="61.6" class="st11" width="4.8" height="4.8"/>
	<rect x="132.4" y="56.9" class="st1" width="4.8" height="4.8"/>
	<rect x="127.6" y="61.6" width="4.8" height="4.8"/>
	<rect x="127.6" y="56.9" class="st11" width="4.8" height="4.8"/>
	<rect x="122.8" y="56.9" width="4.8" height="4.8"/>
	<rect x="137.1" y="52.1" width="4.8" height="4.8"/>
	<rect x="132.4" y="52.1" class="st11" width="4.8" height="4.8"/>
	<rect x="132.4" y="47.3" width="4.8" height="4.8"/>
	<rect x="127.6" y="52.1" class="st1" width="4.8" height="4.8"/>
	<rect x="127.6" y="47.3" class="st11" width="4.8" height="4.8"/>
	<rect x="122.8" y="52.1" class="st11" width="4.8" height="4.8"/>
	<rect x="122.8" y="47.3" class="st1" width="4.8" height="4.8"/>
	<rect x="118.1" y="52.1" width="4.8" height="4.8"/>
	<rect x="118.1" y="47.3" class="st11" width="4.8" height="4.8"/>
	<rect x="113.3" y="47.3" width="4.8" height="4.8"/>
</g>
</svg>
